<?xml version="1.0" standalone="no"?>
<!DOCTYPE svg PUBLIC "-//W3C//DTD SVG 20010904//EN"
 "http://www.w3.org/TR/2001/REC-SVG-20010904/DTD/svg10.dtd">
<svg version="1.0" xmlns="http://www.w3.org/2000/svg"
 width="1042.000000pt" height="1042.000000pt" viewBox="0 0 1042.000000 1042.000000"
 preserveAspectRatio="xMidYMid meet">
<metadata>
Created by potrace 1.11, written by Peter Selinger 2001-2013
</metadata>
<g transform="translate(0.000000,1042.000000) scale(0.100000,-0.100000)"
fill="#000000" stroke="none">
<path d="M2710 10015 c-157 -19 -322 -52 -430 -88 -52 -17 -97 -31 -100 -32
-3 -1 -22 -9 -44 -18 -21 -9 -41 -17 -44 -17 -15 0 -195 -98 -262 -143 -127
-84 -262 -206 -352 -317 -194 -241 -332 -596 -363 -938 -4 -37 -8 -83 -10
-102 -2 -19 -4 -172 -4 -340 l-1 -305 -392 0 -393 0 0 -515 0 -515 392 -3 393
-2 0 -2120 c0 -2012 1 -2120 18 -2121 22 -1 1351 -1 1377 0 20 1 20 7 20 2119
l0 2117 390 0 390 0 58 -165 c32 -91 60 -172 62 -180 2 -8 22 -67 45 -130 23
-63 50 -140 60 -170 10 -30 43 -125 73 -210 30 -85 141 -400 245 -700 105
-300 256 -734 337 -965 81 -231 181 -517 222 -635 41 -118 89 -258 108 -310
18 -52 87 -250 153 -438 l121 -344 -28 -76 c-119 -327 -176 -460 -236 -552
-134 -203 -287 -286 -605 -326 -30 -4 -136 -6 -236 -6 l-181 1 0 -535 -1 -534
37 -9 c92 -25 159 -40 191 -45 19 -3 46 -8 59 -10 13 -3 49 -8 80 -11 31 -4
67 -8 81 -11 33 -6 280 -5 355 1 135 11 239 30 360 67 39 12 73 22 77 22 3 1
10 4 14 8 4 5 14 8 21 8 8 0 60 22 115 50 450 224 725 595 968 1306 28 82 55
158 60 169 5 11 35 99 69 195 33 96 94 274 137 395 42 121 98 283 125 360 26
77 75 219 109 315 34 96 102 292 152 435 123 357 149 431 283 815 65 184 152
436 195 560 43 124 86 245 95 270 9 25 18 52 20 60 2 8 43 125 90 260 48 135
92 263 99 285 7 22 31 92 54 155 61 172 260 741 297 850 17 52 44 131 59 175
15 44 30 87 33 95 23 61 92 258 130 370 25 74 49 142 54 151 6 12 4 18 -9 21
-9 2 -350 4 -757 3 l-740 0 -23 -70 c-12 -38 -24 -79 -27 -90 -2 -11 -36 -126
-75 -255 -40 -129 -74 -244 -77 -255 -5 -20 -40 -139 -92 -312 -60 -200 -193
-648 -195 -658 -1 -5 -15 -50 -30 -100 -15 -49 -36 -121 -48 -160 -11 -38 -29
-97 -39 -130 -17 -54 -174 -586 -270 -910 -83 -282 -91 -310 -96 -319 -3 -5
-27 63 -53 150 -72 242 -417 1397 -446 1494 -47 157 -82 274 -113 378 -17 56
-44 146 -60 200 -16 53 -43 142 -59 197 -36 119 -57 189 -157 525 -42 140 -80
269 -85 285 l-10 30 -967 1 -968 0 1 249 c0 250 5 323 24 409 14 63 58 177 75
196 8 9 15 22 15 28 0 6 31 42 68 79 99 100 241 168 392 188 30 4 64 9 75 12
28 6 302 5 345 -1 19 -3 55 -8 80 -11 45 -5 72 -10 123 -21 l27 -6 1 89 c0 48
2 203 4 343 7 440 6 653 -2 661 -9 9 -212 51 -304 63 -25 4 -59 9 -75 12 -67
13 -100 15 -319 18 -142 2 -270 -2 -335 -9z"/>
<path d="M8930 9799 c-469 -56 -732 -434 -635 -912 18 -87 71 -193 136 -271
149 -178 359 -268 629 -268 238 -1 421 62 566 194 152 139 225 309 227 523 0
128 -10 190 -46 285 -89 233 -293 395 -553 441 -78 13 -243 17 -324 8z"/>
<path d="M8359 7715 c-1 0 -2 -1187 -3 -2637 l-1 -2638 30 -1 c154 -3 1377 0
1381 4 4 3 8 4856 4 5237 l0 35 -705 0 c-388 0 -706 0 -706 0z"/>
</g>
</svg>
