<?xml version="1.0" encoding="utf-8"?>
<!-- Generator: Adobe Illustrator 22.0.1, SVG Export Plug-In . SVG Version: 6.00 Build 0)  -->
<svg version="1.1" id="Layer_1" xmlns="http://www.w3.org/2000/svg" xmlns:xlink="http://www.w3.org/1999/xlink" x="0px" y="0px"
	 viewBox="0 0 64 64" style="enable-background:new 0 0 64 64;" xml:space="preserve">
<style type="text/css">
	.st0{fill:#FFFFFF;}
	.st1{fill:#3B5998;}
</style>
<circle class="st0" cx="31.2" cy="31.2" r="16.1"/>
<path class="st1" d="M32.2,7.5C18.7,7.5,7.8,18.4,7.8,31.9s10.9,24.4,24.4,24.4s24.4-10.9,24.4-24.4C56.5,18.4,45.6,7.5,32.2,7.5z
	 M38.3,24.3h-3.1c-0.8,0-1.4,0.7-1.4,1.6v1.4h4.5l-0.7,4.5h-3.8V44h-4.6V31.8h-3v-4.5h3V25l0,0c0.1-2.6,1-5.2,5.5-5.3l0,0h3.7
	L38.3,24.3L38.3,24.3z"/>
</svg>
