<svg xmlns="http://www.w3.org/2000/svg" xmlns:xlink="http://www.w3.org/1999/xlink" id="Layer_1" x="0px" y="0px" style="enable-background:new 0 0 49.7 50" version="1.1" viewBox="0 0 49.7 50" xml:space="preserve">
    <path d="M24.9,1.1c-13.5,0-24.5,11-24.5,24.5c0,10.8,7,20,16.7,23.2c1.2,0.2,1.7-0.5,1.7-1.2c0-0.6,0-2.1,0-4.2
	c-6.8,1.5-8.2-3.3-8.2-3.3c-1.1-2.8-2.7-3.6-2.7-3.6C5.6,35.1,8,35.1,8,35.1c2.5,0.2,3.7,2.5,3.7,2.5c2.2,3.7,5.7,2.7,7.1,2
	c0.2-1.6,0.9-2.7,1.6-3.3C15,35.8,9.2,33.7,9.2,24.3c0-2.7,1-4.9,2.5-6.6c-0.3-0.6-1.1-3.1,0.2-6.5c0,0,2.1-0.7,6.7,2.5
	c2-0.5,4-0.8,6.1-0.8c2.1,0,4.2,0.3,6.1,0.8c4.7-3.2,6.7-2.5,6.7-2.5c1.3,3.4,0.5,5.9,0.2,6.5c1.6,1.7,2.5,3.9,2.5,6.6
	c0,9.4-5.7,11.5-11.2,12.1c0.9,0.8,1.7,2.2,1.7,4.5c0,3.3,0,5.9,0,6.7c0,0.7,0.4,1.4,1.7,1.2c9.7-3.2,16.7-12.4,16.7-23.2
	C49.3,12.1,38.4,1.1,24.9,1.1z"/>
</svg>
