<svg xmlns="http://www.w3.org/2000/svg" xmlns:xlink="http://www.w3.org/1999/xlink" x="0px" y="0px" style="enable-background:new 0 0 64 64" version="1.1" viewBox="0 0 64 64" xml:space="preserve">
    <circle cx="32" cy="32" r="24.5" fill="#2CB742"/>
    <path fill="#FFFFFF" d="M38.6,34.9c-0.4-0.2-2.1-1-2.4-1.2c-0.3-0.1-0.6-0.2-0.8,0.2c-0.2,0.4-0.9,1.2-1.1,1.4
		c-0.2,0.2-0.4,0.3-0.8,0.1c-0.4-0.2-1.5-0.6-2.9-1.8c-1.1-1-1.8-2.1-2-2.5c-0.2-0.4,0-0.6,0.2-0.7c0.2-0.2,0.4-0.4,0.5-0.6
		c0.2-0.2,0.2-0.4,0.4-0.6c0.1-0.3,0.1-0.5,0-0.6c-0.1-0.2-0.8-1.9-1.1-2.6c-0.3-0.7-0.6-0.6-0.8-0.6c-0.2,0-0.4,0-0.7,0
		c-0.2,0-0.6,0.1-1,0.4c-0.3,0.4-1.3,1.2-1.3,3c0,1.7,1.3,3.4,1.5,3.7c0.2,0.2,2.5,3.8,6.1,5.4c0.9,0.4,1.5,0.6,2,0.8
		c0.9,0.3,1.6,0.2,2.3,0.1c0.7-0.1,2.1-0.9,2.4-1.7c0.3-0.8,0.3-1.5,0.2-1.7C39.2,35,39,34.9,38.6,34.9 M32.1,43.7L32.1,43.7
		c-2.1,0-4.2-0.6-6.1-1.7l-0.4-0.3L21.1,43l1.2-4.4L22,38.1c-1.2-1.9-1.8-4.1-1.8-6.3c0-6.5,5.3-11.9,11.9-11.9
		c3.2,0,6.2,1.2,8.4,3.5c2.3,2.2,3.5,5.2,3.5,8.4C44,38.4,38.7,43.7,32.1,43.7 M42.2,21.7c-2.7-2.6-6.3-4.1-10.2-4.1
		c-7.9,0-14.3,6.4-14.3,14.3c0,2.5,0.7,5,1.9,7.1l-2,7.4l7.6-2c2.1,1.1,4.5,1.7,6.9,1.7h0c7.9,0,14.3-6.4,14.3-14.3
		C46.4,28.1,44.9,24.5,42.2,21.7"/>
</svg>
